<svg xmlns="http://www.w3.org/2000/svg" enable-background="new 0 0 178.816 287.563" viewBox="0 0 178.816 287.563"><path d="M39.789 187.809l17.414 87.814c0 6.594 6.603 11.939 14.748 11.939 8.147 0 14.754-5.346 14.754-11.939v-70.871c-16.466-.394-30.491-4.392-40.68-11.636C43.743 191.495 41.672 189.72 39.789 187.809zM92.111 204.752v70.871c0 6.594 6.606 11.939 14.753 11.939 8.145 0 14.751-5.346 14.751-11.939l17.412-87.815c-1.883 1.911-3.955 3.686-6.237 5.308C122.601 200.36 108.577 204.358 92.111 204.752z"/><path d="M89.408,201.791c31.265,0,59.839-13.052,59.839-49.805c0-6.533-0.918-13.103-2.578-19.495l-9.822-48.951
		c9.005-2.365,18.905-6.72,26.891-14.679c11.238-11.202,16.236-26.699,14.853-46.061c-0.273-3.822-9.096-4.607-15.472-3.149V3.25
		c0-1.787-1.462-3.25-3.25-3.25s-3.25,1.463-3.25,3.25v30.378c-0.727,8.246-3.483,14.702-8.342,19.581
		c-9.361,9.399-24.449,10.873-31.245,11.034c-5.898,9.011-16.075,14.981-27.625,14.981c-11.55,0-21.727-5.97-27.625-14.981
		c-6.796-0.161-21.884-1.635-31.244-11.034c-4.859-4.878-7.615-11.335-8.342-19.581V3.25c0-1.787-1.462-3.25-3.25-3.25
		s-3.25,1.463-3.25,3.25v16.401C9.321,18.192,0.498,18.978,0.225,22.8c-1.384,19.362,3.614,34.859,14.853,46.061
		c7.985,7.959,17.885,12.315,26.891,14.679l-9.82,48.941c-1.662,6.396-2.581,12.968-2.581,19.505
		C29.568,188.74,58.142,201.791,89.408,201.791z"/><path d="M89.408,76.224c16.567,0,30-13.432,30-30c0-16.566-13.433-29.999-30-29.999c-16.567,0-30,13.433-30,29.999
		C59.408,62.792,72.84,76.224,89.408,76.224z M106.347,56.812c0,0-14.989,26.838-33.879,2.236
		C72.468,59.048,92.93,64.231,106.347,56.812z"/></svg>